<?xml version="1.0" encoding="UTF-8"?>
<!DOCTYPE svg PUBLIC "-//W3C//DTD SVG 1.1//EN" "http://www.w3.org/Graphics/SVG/1.1/DTD/svg11.dtd">
<svg version="1.1" xmlns="http://www.w3.org/2000/svg" xmlns:xlink="http://www.w3.org/1999/xlink" x="0" y="0" width="880.539" height="511.614" viewBox="0, 0, 880.539, 511.614">
  <defs>
    <clipPath id="Clip_1">
      <path d="M-828.099,-12391.244 L-455.649,-12391.244 L-455.649,-12221.933 L-828.099,-12221.933 z M-461.649,-12383.244 C-477.968,-12381.763 -495.619,-12376.88 -512.934,-12369.038 C-530.93,-12360.883 -547.589,-12347.929 -565.227,-12334.215 C-597.217,-12309.51 -631.229,-12284.088 -673.475,-12284.112 C-689.62,-12284.665 -681.846,-12284.224 -703.704,-12286.176 C-719.309,-12287.569 -735.12,-12289.734 -750.777,-12287.498 C-781.632,-12283.187 -777.202,-12248.983 -822.099,-12237.001 C-786.446,-12229.934 -761.796,-12228.755 -737.147,-12244.952 C-713.789,-12260.302 -689.312,-12252.1 -671.491,-12245.178 C-625.23,-12227.21 -584.944,-12225.888 -532.983,-12237.216 C-536.008,-12237.076 -539.168,-12237.001 -542.287,-12237.001 L-542.891,-12237.001 L-543.101,-12237.006 C-537.282,-12237.074 -540.25,-12237.006 -534.196,-12237.218 C-530.744,-12237.487 -527.457,-12238.767 -524.282,-12240.004 C-523.338,-12240.369 -522.409,-12240.729 -521.495,-12241.061 C-512.503,-12245.542 -499.446,-12255.682 -488.009,-12278.562 C-476.375,-12301.835 -467.574,-12335.384 -462.553,-12375.581 C-462.241,-12378.063 -461.94,-12380.63 -461.649,-12383.244 z"/>
    </clipPath>
    <filter id="Shadow_2">
      <feGaussianBlur in="SourceAlpha" stdDeviation="2.5"/>
      <feOffset dx="0" dy="2" result="offsetblur"/>
      <feFlood flood-color="#FFFFFF"/>
      <feComposite in2="offsetblur" operator="in"/>
    </filter>
    <clipPath id="Clip_3">
      <path d="M-503.116,-12391.695 L-379.967,-12391.695 L-379.967,-12234.306 L-503.116,-12234.306 z M-448.913,-12383.695 C-449.264,-12380.395 -449.641,-12377.132 -450.037,-12373.957 C-455.118,-12333.308 -464.34,-12298.343 -476.712,-12272.845 C-482.85,-12260.207 -489.687,-12249.979 -497.116,-12242.306 C-454.437,-12252.229 -415.511,-12275.891 -386.497,-12309.737 C-383.822,-12337.821 -391.311,-12359.193 -408.154,-12371.541 C-418.534,-12379.153 -432.587,-12383.336 -448.913,-12383.695 z"/>
    </clipPath>
    <filter id="Shadow_4">
      <feGaussianBlur in="SourceAlpha" stdDeviation="2.5"/>
      <feOffset dx="0" dy="2" result="offsetblur"/>
      <feFlood flood-color="#FFFFFF"/>
      <feComposite in2="offsetblur" operator="in"/>
    </filter>
    <clipPath id="Clip_5">
      <path d="M-1077.014,-12451.054 L-452.263,-12451.054 L-452.263,-12277.695 L-1077.014,-12277.695 z M-750.776,-12443.054 L-751.253,-12443.05 L-752.019,-12443.052 L-752.018,-12443.045 C-815.842,-12442.604 -847.797,-12437.585 -902.03,-12402.255 C-946.595,-12375.043 -989.81,-12377.547 -1032.577,-12392.243 C-1032.589,-12392.243 -1032.613,-12392.255 -1032.623,-12392.255 C-1036.909,-12393.575 -1041.321,-12394.324 -1045.952,-12394.078 C-1048.056,-12393.961 -1050.204,-12393.657 -1052.398,-12393.12 C-1058.689,-12391.144 -1065.44,-12388.776 -1069.303,-12382.987 C-1070.121,-12382.32 -1069.438,-12382.899 -1071.014,-12380.914 L-1069.303,-12382.987 C-1050.343,-12398.437 -1027.117,-12359.266 -1014.698,-12348.894 C-988.062,-12328.793 -948.799,-12338.522 -918.188,-12336.744 C-900.631,-12335.729 -829.642,-12336.897 -845.257,-12305.166 C-849.302,-12296.948 -857.92,-12290.471 -865.997,-12286.765 C-846.878,-12284.1 -830.351,-12286.054 -814.291,-12296.784 C-811.721,-12298.299 -809.301,-12300.104 -806.58,-12301.327 C-801.439,-12303.639 -796.223,-12305.885 -790.782,-12307.356 C-757.312,-12316.412 -723.45,-12302.475 -690.444,-12298.476 L-690.234,-12298.255 C-684.756,-12297.391 -679.263,-12296.953 -673.906,-12296.953 C-633.901,-12296.953 -602.884,-12321.073 -572.87,-12344.413 C-554.632,-12358.6 -537.403,-12371.997 -518.072,-12380.76 C-498.609,-12389.574 -478.721,-12394.913 -460.375,-12396.263 C-459.071,-12411.382 -458.361,-12426.87 -458.263,-12442.382 L-750.776,-12443.05 L-750.776,-12443.054 z"/>
    </clipPath>
    <filter id="Shadow_6">
      <feGaussianBlur in="SourceAlpha" stdDeviation="2.5"/>
      <feOffset dx="0" dy="2" result="offsetblur"/>
      <feFlood flood-color="#FFFFFF"/>
      <feComposite in2="offsetblur" operator="in"/>
    </filter>
    <clipPath id="Clip_7">
      <path d="M-453.695,-12450.35 L-329.337,-12450.35 L-329.337,-12318.515 L-453.695,-12318.515 z M-445.653,-12442.35 C-445.746,-12427.025 -446.432,-12411.645 -447.695,-12396.536 C-429.224,-12395.972 -413.056,-12390.955 -400.774,-12381.952 C-384.134,-12369.751 -374.802,-12350.698 -373.508,-12326.515 C-349.783,-12360.494 -336.643,-12400.223 -335.337,-12442.097 L-445.653,-12442.35 z"/>
    </clipPath>
    <filter id="Shadow_8">
      <feGaussianBlur in="SourceAlpha" stdDeviation="2.5"/>
      <feOffset dx="0" dy="2" result="offsetblur"/>
      <feFlood flood-color="#FFFFFF"/>
      <feComposite in2="offsetblur" operator="in"/>
    </filter>
    <clipPath id="Clip_9">
      <path d="M-1211.849,-12608.493 L-452.327,-12608.493 L-452.327,-12393.485 L-1211.849,-12393.485 z M-684.967,-12600.493 C-686.503,-12600.494 -688.051,-12600.455 -689.581,-12600.374 L-689.729,-12600.221 C-712.835,-12597.651 -735.013,-12592.5 -757.162,-12585.377 C-801.346,-12571.168 -836.609,-12554.063 -884.793,-12563.186 C-933.082,-12570.868 -974.395,-12573.088 -1022.54,-12548.233 C-985.44,-12558.951 -908.866,-12520.222 -980.92,-12504.215 C-1007.644,-12498.28 -1028.943,-12519.637 -1072.606,-12521.39 C-1130.614,-12523.72 -1182.342,-12481.641 -1205.849,-12444.999 C-1131.783,-12517.882 -1035.623,-12358.73 -929.845,-12413.007 C-863.28,-12446.799 -828.782,-12459.489 -751.989,-12455.886 L-751.989,-12455.881 L-458.327,-12455.207 C-458.559,-12469.812 -459.335,-12484.271 -460.638,-12498.271 C-478.907,-12499.16 -498.684,-12504.284 -518.019,-12513.15 C-537.919,-12522.28 -556.85,-12535.958 -576.984,-12550.505 C-610.991,-12575.083 -646.158,-12600.498 -684.967,-12600.493 z"/>
    </clipPath>
    <filter id="Shadow_10">
      <feGaussianBlur in="SourceAlpha" stdDeviation="2.5"/>
      <feOffset dx="0" dy="2" result="offsetblur"/>
      <feFlood flood-color="#FFFFFF"/>
      <feComposite in2="offsetblur" operator="in"/>
    </filter>
    <clipPath id="Clip_11">
      <path d="M-453.983,-12579.21 L-329.31,-12579.21 L-329.31,-12446.924 L-453.983,-12446.924 z M-373.336,-12571.21 C-375.684,-12539.46 -390.909,-12522.072 -403.836,-12512.926 C-415.865,-12504.418 -431.075,-12499.4 -447.983,-12498.341 C-446.701,-12484.231 -445.941,-12469.74 -445.72,-12455.176 L-335.31,-12454.924 C-336.433,-12497.021 -349.522,-12536.995 -373.336,-12571.21 z"/>
    </clipPath>
    <filter id="Shadow_12">
      <feGaussianBlur in="SourceAlpha" stdDeviation="2.5"/>
      <feOffset dx="0" dy="2" result="offsetblur"/>
      <feFlood flood-color="#FFFFFF"/>
      <feComposite in2="offsetblur" operator="in"/>
    </filter>
    <clipPath id="Clip_13">
      <path d="M-510.364,-12665.215 L-379.635,-12665.215 L-379.635,-12503.093 L-510.364,-12503.093 z M-504.364,-12657.215 C-496.745,-12650.157 -489.724,-12641.147 -483.409,-12630.31 C-472.228,-12611.128 -463.277,-12586.402 -456.801,-12556.823 C-453.656,-12542.461 -451.131,-12527.089 -449.287,-12511.093 C-434.501,-12511.931 -421.322,-12516.185 -411.039,-12523.458 C-392.711,-12536.424 -384.016,-12558.568 -385.884,-12587.507 C-416.723,-12623.835 -458.442,-12648.305 -504.364,-12657.215 z"/>
    </clipPath>
    <filter id="Shadow_14">
      <feGaussianBlur in="SourceAlpha" stdDeviation="2.5"/>
      <feOffset dx="0" dy="2" result="offsetblur"/>
      <feFlood flood-color="#FFFFFF"/>
      <feComposite in2="offsetblur" operator="in"/>
    </filter>
    <clipPath id="Clip_15">
      <path d="M-894.814,-12737.547 L-456.005,-12737.547 L-456.005,-12503.177 L-894.814,-12503.177 z M-749.088,-12729.547 C-784.386,-12707.955 -766.495,-12687.437 -760.68,-12677.51 C-751.569,-12661.972 -751.569,-12638.005 -793.291,-12613.839 C-853.915,-12578.729 -889.077,-12603.446 -888.813,-12603.446 C-886.748,-12598.459 -886.346,-12596.379 -881.572,-12592.111 C-866.697,-12578.815 -835.913,-12583.929 -818.806,-12586.959 C-771.161,-12595.399 -724.547,-12612.198 -675.79,-12612.924 C-635.451,-12608.017 -601.575,-12584.645 -569.659,-12560.95 C-550.112,-12546.825 -531.654,-12533.483 -512.83,-12524.851 C-495.606,-12516.95 -478.113,-12512.251 -462.005,-12511.177 C-463.781,-12526.188 -466.169,-12540.588 -469.114,-12554.031 C-481.859,-12612.286 -504.477,-12650.007 -532.801,-12660.245 L-534.261,-12660.771 C-540.026,-12660.972 -537.194,-12660.905 -542.756,-12660.977 L-542.433,-12660.983 L-541.951,-12660.982 C-538.899,-12660.976 -535.897,-12660.905 -533.019,-12660.771 C-567.123,-12677.373 -618.428,-12688.465 -666.159,-12688.147 C-721.189,-12687.787 -762.267,-12700.938 -749.088,-12729.547 z"/>
    </clipPath>
    <filter id="Shadow_16">
      <feGaussianBlur in="SourceAlpha" stdDeviation="2.5"/>
      <feOffset dx="0" dy="2" result="offsetblur"/>
      <feFlood flood-color="#FFFFFF"/>
      <feComposite in2="offsetblur" operator="in"/>
    </filter>
  </defs>
  <g id="Layer_1" transform="translate(1210.849, 12734.547)">
    <g>
      <path d="M-461.649,-12383.244 C-461.94,-12380.63 -462.241,-12378.063 -462.553,-12375.581 C-467.574,-12335.384 -476.375,-12301.835 -488.009,-12278.562 C-499.446,-12255.682 -512.503,-12245.542 -521.495,-12241.061 C-522.409,-12240.729 -523.338,-12240.369 -524.282,-12240.004 C-527.457,-12238.767 -530.744,-12237.487 -534.196,-12237.218 C-540.25,-12237.006 -537.282,-12237.074 -543.101,-12237.006 L-542.891,-12237.001 L-542.287,-12237.001 C-539.168,-12237.001 -536.008,-12237.076 -532.983,-12237.216 C-584.944,-12225.888 -625.23,-12227.21 -671.491,-12245.178 C-689.312,-12252.1 -713.789,-12260.302 -737.147,-12244.952 C-761.796,-12228.755 -786.446,-12229.934 -822.099,-12237.001 C-777.202,-12248.983 -781.632,-12283.187 -750.777,-12287.498 C-735.12,-12289.734 -719.309,-12287.569 -703.704,-12286.176 C-681.846,-12284.224 -689.62,-12284.665 -673.475,-12284.112 C-631.229,-12284.088 -597.217,-12309.51 -565.227,-12334.215 C-547.589,-12347.929 -530.93,-12360.883 -512.934,-12369.038 C-495.619,-12376.88 -477.968,-12381.763 -461.649,-12383.244 z" clip-path="url(#Clip_1)" filter="url(#Shadow_2)" fill="rgba(0,0,0,0.465)"/>
      <path d="M-461.649,-12383.244 C-461.94,-12380.63 -462.241,-12378.063 -462.553,-12375.581 C-467.574,-12335.384 -476.375,-12301.835 -488.009,-12278.562 C-499.446,-12255.682 -512.503,-12245.542 -521.495,-12241.061 C-522.409,-12240.729 -523.338,-12240.369 -524.282,-12240.004 C-527.457,-12238.767 -530.744,-12237.487 -534.196,-12237.218 C-540.25,-12237.006 -537.282,-12237.074 -543.101,-12237.006 L-542.891,-12237.001 L-542.287,-12237.001 C-539.168,-12237.001 -536.008,-12237.076 -532.983,-12237.216 C-584.944,-12225.888 -625.23,-12227.21 -671.491,-12245.178 C-689.312,-12252.1 -713.789,-12260.302 -737.147,-12244.952 C-761.796,-12228.755 -786.446,-12229.934 -822.099,-12237.001 C-777.202,-12248.983 -781.632,-12283.187 -750.777,-12287.498 C-735.12,-12289.734 -719.309,-12287.569 -703.704,-12286.176 C-681.846,-12284.224 -689.62,-12284.665 -673.475,-12284.112 C-631.229,-12284.088 -597.217,-12309.51 -565.227,-12334.215 C-547.589,-12347.929 -530.93,-12360.883 -512.934,-12369.038 C-495.619,-12376.88 -477.968,-12381.763 -461.649,-12383.244 z" fill="#D95F00"/>
    </g>
    <g>
      <path d="M-448.913,-12383.695 C-432.587,-12383.336 -418.534,-12379.153 -408.154,-12371.541 C-391.311,-12359.193 -383.822,-12337.821 -386.497,-12309.737 C-415.511,-12275.891 -454.437,-12252.229 -497.116,-12242.306 C-489.687,-12249.979 -482.85,-12260.207 -476.712,-12272.845 C-464.34,-12298.343 -455.118,-12333.308 -450.037,-12373.957 C-449.641,-12377.132 -449.264,-12380.395 -448.913,-12383.695 z" clip-path="url(#Clip_3)" filter="url(#Shadow_4)" fill="rgba(0,0,0,0.465)"/>
      <path d="M-448.913,-12383.695 C-432.587,-12383.336 -418.534,-12379.153 -408.154,-12371.541 C-391.311,-12359.193 -383.822,-12337.821 -386.497,-12309.737 C-415.511,-12275.891 -454.437,-12252.229 -497.116,-12242.306 C-489.687,-12249.979 -482.85,-12260.207 -476.712,-12272.845 C-464.34,-12298.343 -455.118,-12333.308 -450.037,-12373.957 C-449.641,-12377.132 -449.264,-12380.395 -448.913,-12383.695 z" fill="#D95F00"/>
    </g>
    <g>
      <path d="M-750.776,-12443.054 L-750.776,-12443.05 L-458.263,-12442.382 C-458.361,-12426.87 -459.071,-12411.382 -460.375,-12396.263 C-478.721,-12394.913 -498.609,-12389.574 -518.072,-12380.76 C-537.403,-12371.997 -554.632,-12358.6 -572.87,-12344.413 C-602.884,-12321.073 -633.901,-12296.953 -673.906,-12296.953 C-679.263,-12296.953 -684.756,-12297.391 -690.234,-12298.255 L-690.444,-12298.476 C-723.45,-12302.475 -757.312,-12316.412 -790.782,-12307.356 C-796.223,-12305.885 -801.439,-12303.639 -806.58,-12301.327 C-809.301,-12300.104 -811.721,-12298.299 -814.291,-12296.784 C-830.351,-12286.054 -846.878,-12284.1 -865.997,-12286.765 C-857.92,-12290.471 -849.302,-12296.948 -845.257,-12305.166 C-829.642,-12336.897 -900.631,-12335.729 -918.188,-12336.744 C-948.799,-12338.522 -988.062,-12328.793 -1014.698,-12348.894 C-1027.117,-12359.266 -1050.343,-12398.437 -1069.303,-12382.987 L-1071.014,-12380.914 C-1069.438,-12382.899 -1070.121,-12382.32 -1069.303,-12382.987 C-1065.44,-12388.776 -1058.689,-12391.144 -1052.398,-12393.12 C-1050.204,-12393.657 -1048.056,-12393.961 -1045.952,-12394.078 C-1041.321,-12394.324 -1036.909,-12393.575 -1032.623,-12392.255 C-1032.613,-12392.255 -1032.589,-12392.243 -1032.577,-12392.243 C-989.81,-12377.547 -946.595,-12375.043 -902.03,-12402.255 C-847.797,-12437.585 -815.842,-12442.604 -752.018,-12443.045 L-752.019,-12443.052 L-751.253,-12443.05 L-750.776,-12443.054 z" clip-path="url(#Clip_5)" filter="url(#Shadow_6)" fill="rgba(0,0,0,0.465)"/>
      <path d="M-750.776,-12443.054 L-750.776,-12443.05 L-458.264,-12442.383 C-458.361,-12426.87 -459.071,-12411.382 -460.375,-12396.263 C-478.721,-12394.913 -498.609,-12389.574 -518.072,-12380.76 C-537.403,-12371.997 -554.632,-12358.6 -572.87,-12344.413 C-602.884,-12321.073 -633.901,-12296.953 -673.906,-12296.953 C-679.263,-12296.953 -684.756,-12297.391 -690.234,-12298.255 L-690.444,-12298.476 C-723.45,-12302.475 -757.312,-12316.412 -790.782,-12307.356 C-796.223,-12305.885 -801.439,-12303.639 -806.58,-12301.327 C-809.301,-12300.104 -811.721,-12298.299 -814.291,-12296.784 C-830.351,-12286.054 -846.878,-12284.1 -865.997,-12286.765 C-857.92,-12290.471 -849.302,-12296.948 -845.257,-12305.166 C-829.642,-12336.897 -900.631,-12335.729 -918.188,-12336.744 C-948.799,-12338.522 -988.062,-12328.793 -1014.698,-12348.894 C-1027.117,-12359.266 -1050.343,-12398.437 -1069.303,-12382.987 L-1071.014,-12380.914 C-1069.438,-12382.899 -1070.121,-12382.32 -1069.303,-12382.987 C-1065.44,-12388.776 -1058.689,-12391.144 -1052.398,-12393.12 C-1050.204,-12393.657 -1048.056,-12393.961 -1045.952,-12394.078 C-1041.321,-12394.324 -1036.909,-12393.575 -1032.623,-12392.255 C-1032.613,-12392.255 -1032.589,-12392.243 -1032.577,-12392.243 C-989.81,-12377.547 -946.595,-12375.043 -902.03,-12402.255 C-847.797,-12437.585 -815.842,-12442.604 -752.018,-12443.045 L-752.019,-12443.052 L-751.253,-12443.05 L-750.776,-12443.054 z" fill="#D95F00"/>
    </g>
    <g>
      <path d="M-445.653,-12442.35 L-335.337,-12442.097 C-336.643,-12400.223 -349.783,-12360.494 -373.508,-12326.515 C-374.802,-12350.698 -384.134,-12369.751 -400.774,-12381.952 C-413.056,-12390.955 -429.224,-12395.972 -447.695,-12396.536 C-446.432,-12411.645 -445.746,-12427.025 -445.653,-12442.35 z" clip-path="url(#Clip_7)" filter="url(#Shadow_8)" fill="rgba(0,0,0,0.465)"/>
      <path d="M-445.653,-12442.35 L-335.337,-12442.097 C-336.643,-12400.223 -349.783,-12360.494 -373.508,-12326.515 C-374.802,-12350.698 -384.134,-12369.751 -400.774,-12381.952 C-413.056,-12390.955 -429.224,-12395.972 -447.695,-12396.536 C-446.432,-12411.645 -445.746,-12427.025 -445.653,-12442.35 z" fill="#D95F00"/>
    </g>
    <g>
      <path d="M-684.967,-12600.493 C-646.158,-12600.498 -610.991,-12575.083 -576.984,-12550.505 C-556.85,-12535.958 -537.919,-12522.28 -518.019,-12513.15 C-498.684,-12504.284 -478.907,-12499.16 -460.638,-12498.271 C-459.335,-12484.271 -458.559,-12469.812 -458.327,-12455.207 L-751.989,-12455.881 L-751.989,-12455.886 C-828.782,-12459.489 -863.28,-12446.799 -929.845,-12413.007 C-1035.623,-12358.73 -1131.783,-12517.882 -1205.849,-12444.999 C-1182.342,-12481.641 -1130.614,-12523.72 -1072.606,-12521.39 C-1028.943,-12519.637 -1007.644,-12498.28 -980.92,-12504.215 C-908.866,-12520.222 -985.44,-12558.951 -1022.54,-12548.233 C-974.395,-12573.088 -933.082,-12570.868 -884.793,-12563.186 C-836.609,-12554.063 -801.346,-12571.168 -757.162,-12585.377 C-735.013,-12592.5 -712.835,-12597.651 -689.729,-12600.221 L-689.581,-12600.374 C-688.051,-12600.455 -686.503,-12600.494 -684.967,-12600.493 z" clip-path="url(#Clip_9)" filter="url(#Shadow_10)" fill="rgba(0,0,0,0.465)"/>
      <path d="M-684.967,-12600.493 C-646.158,-12600.498 -610.991,-12575.083 -576.984,-12550.505 C-556.85,-12535.958 -537.919,-12522.28 -518.019,-12513.15 C-498.684,-12504.284 -478.907,-12499.16 -460.638,-12498.271 C-459.335,-12484.271 -458.559,-12469.812 -458.327,-12455.207 L-751.989,-12455.881 L-751.989,-12455.887 C-828.782,-12459.489 -863.28,-12446.799 -929.845,-12413.007 C-1035.623,-12358.73 -1131.783,-12517.882 -1205.849,-12444.999 C-1182.342,-12481.641 -1130.614,-12523.72 -1072.606,-12521.39 C-1028.943,-12519.637 -1007.644,-12498.28 -980.92,-12504.215 C-908.866,-12520.222 -985.44,-12558.951 -1022.54,-12548.233 C-974.395,-12573.088 -933.082,-12570.868 -884.793,-12563.186 C-836.609,-12554.063 -801.346,-12571.168 -757.162,-12585.377 C-735.013,-12592.5 -712.835,-12597.651 -689.729,-12600.221 L-689.582,-12600.374 C-688.051,-12600.455 -686.503,-12600.494 -684.967,-12600.493 z" fill="#D95F00"/>
    </g>
    <g>
      <path d="M-373.336,-12571.21 C-349.522,-12536.995 -336.433,-12497.021 -335.31,-12454.924 L-445.72,-12455.176 C-445.941,-12469.74 -446.701,-12484.231 -447.983,-12498.341 C-431.075,-12499.4 -415.865,-12504.418 -403.836,-12512.926 C-390.909,-12522.072 -375.684,-12539.46 -373.336,-12571.21 z" clip-path="url(#Clip_11)" filter="url(#Shadow_12)" fill="rgba(0,0,0,0.465)"/>
      <path d="M-373.336,-12571.21 C-349.522,-12536.995 -336.433,-12497.021 -335.31,-12454.924 L-445.721,-12455.176 C-445.941,-12469.74 -446.701,-12484.231 -447.983,-12498.341 C-431.075,-12499.4 -415.865,-12504.418 -403.836,-12512.926 C-390.909,-12522.072 -375.684,-12539.46 -373.336,-12571.21 z" fill="#D95F00"/>
    </g>
    <g>
      <path d="M-504.364,-12657.215 C-458.442,-12648.305 -416.723,-12623.835 -385.884,-12587.507 C-384.016,-12558.568 -392.711,-12536.424 -411.039,-12523.458 C-421.322,-12516.185 -434.501,-12511.931 -449.287,-12511.093 C-451.131,-12527.089 -453.656,-12542.461 -456.801,-12556.823 C-463.277,-12586.402 -472.228,-12611.128 -483.409,-12630.31 C-489.724,-12641.147 -496.745,-12650.157 -504.364,-12657.215 z" clip-path="url(#Clip_13)" filter="url(#Shadow_14)" fill="rgba(0,0,0,0.465)"/>
      <path d="M-504.364,-12657.215 C-458.442,-12648.305 -416.723,-12623.835 -385.884,-12587.507 C-384.016,-12558.568 -392.711,-12536.424 -411.039,-12523.458 C-421.322,-12516.185 -434.501,-12511.931 -449.287,-12511.093 C-451.131,-12527.089 -453.656,-12542.461 -456.801,-12556.823 C-463.277,-12586.402 -472.228,-12611.128 -483.409,-12630.31 C-489.724,-12641.147 -496.745,-12650.157 -504.364,-12657.215 z" fill="#D95F00"/>
    </g>
    <g>
      <path d="M-749.088,-12729.547 C-762.267,-12700.938 -721.189,-12687.787 -666.159,-12688.147 C-618.428,-12688.465 -567.123,-12677.373 -533.019,-12660.771 C-535.897,-12660.905 -538.899,-12660.976 -541.951,-12660.982 L-542.433,-12660.983 L-542.756,-12660.977 C-537.194,-12660.905 -540.026,-12660.972 -534.261,-12660.771 L-532.801,-12660.245 C-504.477,-12650.007 -481.859,-12612.286 -469.114,-12554.031 C-466.169,-12540.588 -463.781,-12526.188 -462.005,-12511.177 C-478.113,-12512.251 -495.606,-12516.95 -512.83,-12524.851 C-531.654,-12533.483 -550.112,-12546.825 -569.659,-12560.95 C-601.575,-12584.645 -635.451,-12608.017 -675.79,-12612.924 C-724.547,-12612.198 -771.161,-12595.399 -818.806,-12586.959 C-835.913,-12583.929 -866.697,-12578.815 -881.572,-12592.111 C-886.346,-12596.379 -886.748,-12598.459 -888.813,-12603.446 C-889.077,-12603.446 -853.915,-12578.729 -793.291,-12613.839 C-751.569,-12638.005 -751.569,-12661.972 -760.68,-12677.51 C-766.495,-12687.437 -784.386,-12707.955 -749.088,-12729.547 z" clip-path="url(#Clip_15)" filter="url(#Shadow_16)" fill="rgba(0,0,0,0.465)"/>
      <path d="M-749.088,-12729.547 C-762.267,-12700.938 -721.189,-12687.787 -666.159,-12688.147 C-618.428,-12688.465 -567.123,-12677.373 -533.019,-12660.771 C-535.897,-12660.905 -538.899,-12660.976 -541.951,-12660.982 L-542.433,-12660.983 L-542.756,-12660.977 C-537.194,-12660.905 -540.026,-12660.972 -534.261,-12660.771 L-532.801,-12660.245 C-504.477,-12650.007 -481.859,-12612.286 -469.114,-12554.031 C-466.169,-12540.588 -463.781,-12526.188 -462.005,-12511.177 C-478.113,-12512.251 -495.606,-12516.95 -512.83,-12524.851 C-531.654,-12533.483 -550.112,-12546.825 -569.659,-12560.95 C-601.575,-12584.645 -635.451,-12608.017 -675.79,-12612.924 C-724.547,-12612.198 -771.161,-12595.399 -818.806,-12586.959 C-835.913,-12583.929 -866.697,-12578.815 -881.572,-12592.111 C-886.346,-12596.379 -886.748,-12598.459 -888.813,-12603.446 C-889.077,-12603.446 -853.915,-12578.729 -793.291,-12613.839 C-751.569,-12638.005 -751.569,-12661.972 -760.68,-12677.51 C-766.495,-12687.437 -784.386,-12707.955 -749.088,-12729.547 z" fill="#D95F00"/>
    </g>
  </g>
</svg>
